# xmcd CD database file
#
# Track frame offsets:
#	150
#	19660
#	39207
#	58710
#
# Disc length: 1049 seconds
#
# Revision: 1
# Processed by: cddbd v1.5.1PL0 Copyright (c) Steve Scherf et al.
# Submitted via: CDex 1.51
#
DISCID=26041704
DTITLE=Harald Juhnke - bleib cool, bel ami!
DYEAR=1997
DGENRE=Chanson
TTITLE0=Bleib cool, bel ami! (Radio Edit)
TTITLE1=Bleib cool, bel ami! (J.F.K. Soul Mix - Ick bin ein Berliner!)
TTITLE2=Bleib cool, bel ami! (Instrumental)
TTITLE3=My Way (So leb' Dein Leben)
EXTD=YEAR: 1997
EXTT0=
EXTT1=
EXTT2=
EXTT3=
PLAYORDER=
